<svg width="33" height="32" viewBox="0 0 33 32" fill="none" xmlns="http://www.w3.org/2000/svg">
<path d="M26.7121 12.7075L16.7121 22.7075C16.6192 22.8005 16.5089 22.8742 16.3875 22.9246C16.2661 22.9749 16.136 23.0008 16.0046 23.0008C15.8732 23.0008 15.743 22.9749 15.6216 22.9246C15.5002 22.8742 15.39 22.8005 15.2971 22.7075L5.29708 12.7075C5.10944 12.5199 5.00403 12.2654 5.00403 12C5.00403 11.7346 5.10944 11.4801 5.29708 11.2925C5.48472 11.1049 5.73922 10.9995 6.00458 10.9995C6.26995 10.9995 6.52444 11.1049 6.71208 11.2925L16.0046 20.5863L25.2971 11.2925C25.39 11.1996 25.5003 11.1259 25.6217 11.0756C25.7431 11.0253 25.8732 10.9995 26.0046 10.9995C26.136 10.9995 26.2661 11.0253 26.3875 11.0756C26.5089 11.1259 26.6192 11.1996 26.7121 11.2925C26.805 11.3854 26.8787 11.4957 26.929 11.6171C26.9793 11.7385 27.0051 11.8686 27.0051 12C27.0051 12.1314 26.9793 12.2615 26.929 12.3829C26.8787 12.5043 26.805 12.6146 26.7121 12.7075Z" fill="black" fill-opacity="0.5"/>
</svg>
