<svg width="49" height="48" viewBox="0 0 49 48" fill="none" xmlns="http://www.w3.org/2000/svg">
<ellipse cx="24.5" cy="24" rx="24.5" ry="24" fill="#31572C"/>
<path d="M36.415 11.585C36.1635 11.3337 35.8496 11.1539 35.5055 11.0643C35.1614 10.9747 34.7997 10.9784 34.4575 11.075H34.4388L10.4463 18.355C10.0557 18.4673 9.70863 18.696 9.45126 19.0105C9.19388 19.325 9.03842 19.7104 9.00557 20.1155C8.97272 20.5205 9.06404 20.926 9.26738 21.2778C9.47071 21.6297 9.77641 21.9112 10.1438 22.085L20.8463 27.1538L25.915 37.8563C26.075 38.199 26.3298 38.4888 26.6492 38.6915C26.9686 38.8941 27.3393 39.0012 27.7175 39C27.775 39 27.8325 38.9975 27.89 38.9925C28.2936 38.9598 28.6776 38.8045 28.9904 38.5473C29.3032 38.2902 29.5299 37.9435 29.64 37.5538L36.915 13.5613C36.915 13.555 36.915 13.5488 36.915 13.5425C37.0129 13.2012 37.0182 12.84 36.9304 12.496C36.8425 12.152 36.6646 11.8376 36.415 11.585ZM27.7288 36.9813L27.7225 36.9988L22.8025 26.6125L28.7075 20.7063C28.8871 20.5172 28.9858 20.2655 28.9824 20.0047C28.9791 19.7439 28.874 19.4948 28.6896 19.3104C28.5052 19.126 28.2561 19.0209 27.9953 19.0176C27.7346 19.0142 27.4828 19.1129 27.2938 19.2925L21.3875 25.1975L11 20.2775H11.0175L35 13L27.7288 36.9813Z" fill="white"/>
</svg>
